<svg width="171" height="52" viewBox="0 0 171 52" fill="none" xmlns="http://www.w3.org/2000/svg">
<rect x="1" y="1" width="169" height="50" rx="25" fill="white"/>
<rect x="1" y="1" width="169" height="50" rx="25" stroke="#566DD6" stroke-width="2"/>
<path d="M53.2657 46C50.5564 46 48.1902 45.4537 46.1672 44.3611C44.1442 43.2685 42.5728 41.7571 41.4529 39.8269C40.3691 37.8602 39.8273 35.5475 39.8273 32.8889C39.8273 30.1939 40.3691 27.8812 41.4529 25.951C42.5728 23.9843 44.1442 22.4729 46.1672 21.4167C48.1902 20.3241 50.5744 19.7778 53.3199 19.7778C56.0654 19.7778 58.3955 20.2877 60.3101 21.3075C62.2608 22.2908 63.742 23.7476 64.7535 25.6778C65.765 27.5716 66.2707 29.8661 66.2707 32.5611C66.2707 32.8889 66.2526 33.2349 66.2165 33.5991C66.2165 33.9633 66.1985 34.2546 66.1623 34.4732H43.8371V30.1028H60.0392L58.1426 32.6158C58.2871 32.3972 58.4135 32.1059 58.5219 31.7417C58.6664 31.3411 58.7387 31.0133 58.7387 30.7584C58.7387 29.5201 58.5039 28.4639 58.0342 27.5898C57.6007 26.7158 56.9685 26.0238 56.1377 25.5139C55.3068 25.0041 54.3314 24.7491 53.2116 24.7491C51.8388 24.7491 50.6828 25.0587 49.7436 25.6778C48.8404 26.2605 48.136 27.1528 47.6303 28.3547C47.1606 29.5201 46.9078 30.9769 46.8716 32.725C46.8716 34.4003 47.1064 35.8207 47.5761 36.9861C48.0818 38.1516 48.8224 39.0438 49.7977 39.663C50.7731 40.2821 51.9472 40.5917 53.3199 40.5917C54.8733 40.5917 56.1919 40.3003 57.2756 39.7176C58.3955 39.0985 59.3167 38.188 60.0392 36.9861L66.1623 38.8982C64.8618 41.2654 63.1278 43.05 60.9603 44.2519C58.829 45.4173 56.2641 46 53.2657 46Z" fill="#566DD6"/>
<path d="M79.2236 26.7704H67.5191V20.3241H91.0365L77.6522 39.0074H89.465V45.4537H65.4058L79.2236 26.7704Z" fill="#566DD6"/>
<path d="M97.5893 37.6417C97.5893 38.3701 97.7699 39.0074 98.1312 39.5537C98.4924 40.0636 98.9801 40.4642 99.5943 40.7556C100.244 41.0105 100.949 41.138 101.708 41.138C102.791 41.138 103.767 40.9194 104.634 40.4824C105.501 40.009 106.205 39.3534 106.747 38.5158C107.289 37.6417 107.56 36.6037 107.56 35.4019L108.427 38.6796C108.427 40.2821 107.975 41.6296 107.072 42.7222C106.205 43.8148 105.067 44.6343 103.658 45.1806C102.286 45.7268 100.841 46 99.3233 46C97.7699 46 96.3249 45.6904 94.9883 45.0713C93.6517 44.4522 92.568 43.5599 91.7371 42.3944C90.9423 41.1926 90.545 39.7358 90.545 38.0241C90.545 35.584 91.3939 33.6537 93.0918 32.2334C94.7896 30.813 97.1919 30.1028 100.299 30.1028C101.888 30.1028 103.279 30.2667 104.471 30.5945C105.699 30.9223 106.729 31.3229 107.56 31.7963C108.391 32.2698 108.987 32.725 109.348 33.1621V36.4398C108.373 35.7114 107.271 35.1651 106.043 34.8009C104.85 34.4367 103.586 34.2547 102.249 34.2547C101.166 34.2547 100.281 34.4003 99.5943 34.6917C98.9079 34.9466 98.4021 35.329 98.077 35.8389C97.7519 36.3124 97.5893 36.9133 97.5893 37.6417ZM94.8799 27.426L92.279 22.6186C93.5795 21.9266 95.169 21.271 97.0474 20.6519C98.9259 19.9963 101.021 19.6686 103.333 19.6686C105.465 19.6686 107.361 19.9781 109.023 20.5973C110.685 21.2164 111.985 22.1269 112.924 23.3287C113.864 24.4942 114.333 25.9328 114.333 27.6445V45.4537H107.56V29.1195C107.56 28.4275 107.451 27.8448 107.235 27.3713C107.018 26.8615 106.675 26.4426 106.205 26.1149C105.772 25.7871 105.248 25.5504 104.634 25.4047C104.02 25.259 103.333 25.1862 102.575 25.1862C101.419 25.1862 100.317 25.3136 99.2691 25.5686C98.2215 25.8235 97.3184 26.1331 96.5598 26.4973C95.8011 26.8615 95.2412 27.171 94.8799 27.426Z" fill="#566DD6"/>
<path d="M155 29.3926V45.4537H147.956V30.1574C147.956 28.4457 147.667 27.171 147.089 26.3334C146.511 25.4593 145.571 25.0223 144.271 25.0223C143.404 25.0223 142.645 25.2226 141.995 25.6232C141.345 25.9874 140.839 26.5701 140.478 27.3713C140.117 28.1361 139.936 29.0648 139.936 30.1574V45.4537H132.946V30.1574C132.946 28.4457 132.657 27.171 132.079 26.3334C131.501 25.4593 130.561 25.0223 129.261 25.0223C128.394 25.0223 127.635 25.2226 126.985 25.6232C126.335 25.9874 125.829 26.5701 125.468 27.3713C125.107 28.1361 124.926 29.0648 124.926 30.1574V45.4537H118.153V20.3241H124.926V24.0389C125.648 22.655 126.606 21.5988 127.798 20.8704C128.99 20.142 130.417 19.7778 132.079 19.7778C133.921 19.7778 135.438 20.142 136.63 20.8704C137.823 21.5988 138.69 22.6732 139.231 24.0936C140.135 22.6732 141.236 21.5988 142.537 20.8704C143.874 20.142 145.391 19.7778 147.089 19.7778C148.931 19.7778 150.43 20.1602 151.586 20.925C152.742 21.6534 153.591 22.746 154.133 24.2028C154.711 25.6232 155 27.3531 155 29.3926Z" fill="#566DD6"/>
<path d="M16 14.6286V6H47.5495V14.6286H36.5584V46H26.9341V14.6286H16Z" fill="#566DD6"/>
</svg>
