<svg width="64" height="44" viewBox="0 0 64 44" fill="none" xmlns="http://www.w3.org/2000/svg">
<rect x="1" y="1" width="61.5498" height="42" rx="21" fill="white"/>
<rect x="1" y="1" width="61.5498" height="42" rx="21" stroke="#566DD6" stroke-width="2"/>
<path d="M27 16L36 16L36 38L27 38L27 30.3357L27 23.6245L27 16Z" fill="#566DD6"/>
<path d="M47.5498 14.6289H16V6H47.5498V14.6289ZM21.9287 8.02051C21.3328 8.02052 20.8151 8.12457 20.376 8.33203C19.9369 8.53258 19.5956 8.81997 19.3525 9.19336C19.1175 9.5598 19 9.99919 19 10.5107C19.0001 11.0154 19.1174 11.4548 19.3525 11.8281C19.5956 12.1945 19.937 12.481 20.376 12.6885C20.8151 12.8959 21.3289 13 21.917 13C22.5677 13 23.1243 12.8892 23.5869 12.668C24.0574 12.4398 24.4345 12.1009 24.7168 11.6514L23.3877 11.2881C23.2309 11.5163 23.0302 11.6891 22.7871 11.8066C22.5519 11.9173 22.2658 11.9727 21.9287 11.9727C21.6308 11.9726 21.3758 11.9144 21.1641 11.7969C20.9524 11.6793 20.7914 11.5094 20.6816 11.2881C20.6174 11.1486 20.5765 10.9894 20.5527 10.8115H24.7168C24.7246 10.7701 24.7285 10.7145 24.7285 10.6455C24.7364 10.5764 24.7402 10.5105 24.7402 10.4482C24.7402 9.93649 24.6297 9.50024 24.4102 9.14062C24.1906 8.77444 23.8694 8.49815 23.4463 8.31152C23.0307 8.11789 22.5247 8.02051 21.9287 8.02051ZM32.7852 8C32.2835 8 31.8286 8.06213 31.4209 8.18652C31.0132 8.30407 30.668 8.42917 30.3857 8.56055L30.9502 9.47266C31.0286 9.4243 31.1501 9.3659 31.3145 9.29688C31.479 9.22775 31.6751 9.16851 31.9023 9.12012C32.1297 9.07172 32.3692 9.04786 32.6201 9.04785C32.7848 9.04785 32.9341 9.0612 33.0674 9.08887C33.2005 9.1165 33.3142 9.1615 33.4082 9.22363C33.5101 9.28587 33.5848 9.36607 33.6318 9.46289C33.6788 9.55276 33.7021 9.66362 33.7021 9.79492V10.3027C33.5219 10.2129 33.2986 10.1364 33.0322 10.0742C32.7735 10.012 32.471 9.98145 32.126 9.98145C31.4517 9.98148 30.93 10.1161 30.5615 10.3857C30.1931 10.6554 30.0088 11.0221 30.0088 11.4854C30.0088 11.8104 30.0951 12.0872 30.2676 12.3154C30.4479 12.5367 30.6835 12.7057 30.9736 12.8232C31.2636 12.9408 31.5771 12.9999 31.9141 13C32.2434 13 32.5575 12.9484 32.8555 12.8447C33.1612 12.741 33.4085 12.5853 33.5967 12.3779C33.6363 12.336 33.6705 12.291 33.7021 12.2451V12.8965H35.1729V9.51465C35.1729 9.18978 35.0709 8.91655 34.8672 8.69531C34.6633 8.4671 34.3802 8.29432 34.0195 8.17676C33.6589 8.05927 33.2476 8.00002 32.7852 8ZM25.0107 8.12402V9.34863H27.5518L24.5518 12.8965H29.7744V11.6719H27.2109L30.1162 8.12402H25.0107ZM42.2832 8.02051C41.9147 8.02051 41.585 8.09023 41.2949 8.22852C41.0127 8.36679 40.7732 8.57025 40.5771 8.83984C40.4595 8.57038 40.2713 8.36677 40.0127 8.22852C39.7539 8.0902 39.4243 8.02051 39.0244 8.02051C38.6638 8.02053 38.3544 8.09027 38.0957 8.22852C37.8369 8.36683 37.6285 8.56728 37.4717 8.83008V8.12402H36.002V12.8965H37.4717V9.99219C37.4717 9.78476 37.5115 9.6081 37.5898 9.46289C37.6682 9.31077 37.7778 9.20002 37.9189 9.13086C38.0601 9.05479 38.2249 9.0166 38.4131 9.0166C38.6953 9.01663 38.899 9.0997 39.0244 9.26562C39.1499 9.42468 39.2129 9.66715 39.2129 9.99219V12.8965H40.7305V9.99219C40.7305 9.78482 40.7693 9.60808 40.8477 9.46289C40.926 9.31086 41.0358 9.20003 41.1768 9.13086C41.3179 9.05481 41.4828 9.01663 41.6709 9.0166C41.9532 9.0166 42.1577 9.09965 42.2832 9.26562C42.4085 9.42469 42.4707 9.66734 42.4707 9.99219V12.8965H44V9.84668C44 9.45948 43.9369 9.13101 43.8115 8.86133C43.6939 8.5847 43.5097 8.37659 43.2588 8.23828C43.008 8.09322 42.6827 8.02057 42.2832 8.02051ZM32.5498 10.7695C32.8399 10.7695 33.1143 10.8039 33.373 10.873C33.488 10.9029 33.5974 10.9407 33.7021 10.9834V10.9873C33.7021 11.2155 33.644 11.4131 33.5264 11.5791C33.4088 11.7381 33.2555 11.8623 33.0674 11.9521C32.8792 12.0351 32.6669 12.0771 32.4316 12.0771C32.2672 12.0771 32.1146 12.0522 31.9736 12.0039C31.8403 11.9486 31.7337 11.8732 31.6553 11.7764C31.5769 11.6727 31.5381 11.5513 31.5381 11.4131C31.5381 11.2748 31.573 11.1602 31.6436 11.0703C31.7141 10.9735 31.8246 10.9009 31.9736 10.8525C32.1226 10.7973 32.3147 10.7695 32.5498 10.7695ZM21.9053 8.96484C22.1483 8.96485 22.3597 9.01358 22.54 9.11035C22.7203 9.20714 22.8581 9.33801 22.9521 9.50391C23.0356 9.63979 23.0835 9.79921 23.0986 9.98145H20.5869C20.6137 9.85982 20.6476 9.74875 20.6934 9.64941C20.8031 9.4212 20.9563 9.25128 21.1523 9.14062C21.3562 9.02309 21.6073 8.96484 21.9053 8.96484Z" fill="#566DD6"/>
</svg>
